<svg xmlns="http://www.w3.org/2000/svg" shape-rendering="geometricPrecision" text-rendering="geometricPrecision" image-rendering="optimizeQuality" fill-rule="evenodd" clip-rule="evenodd" viewBox="0 0 393 512.569"><g fill-rule="nonzero"><path d="M201.231 287.104a221.383 221.383 0 0126.445-9.288 218.518 218.518 0 0128.889-6.068c9.793-1.37 19.447-2.061 28.949-2.061 13.996 0 26.589 1.747 37.742 5.221 4.586.882 8.963 2.017 13.136 3.399l-.017.052c12.175 4.034 22.533 10.123 31.07 18.26C384.48 312.85 393 335.084 393 363.272c0 12.588-1.896 24.772-5.668 36.547-3.743 11.671-9.329 22.76-16.723 33.244a153.373 153.373 0 01-25.049 27.671c-9.468 8.198-19.943 15.287-31.388 21.247a194.509 194.509 0 01-19.856 9.167l-.017-.048c-7.09 2.808-14.623 5.373-22.586 7.681a325.503 325.503 0 01-24.398 6.042 354.906 354.906 0 01-25.45 4.286c-8.841 1.16-17.504 2.025-25.959 2.577-8.902.587-17.543.883-25.906.883-39.203 0-90.516-7.385-121.052-34.196-26.801-23.529-37.477-58.446-42.802-92.746C2.052 359.208 0 323.595 0 278.798c0-17.656.378-35.673 1.126-54.034.743-18.222 1.817-35.491 3.208-51.783 1.443-16.891 2.977-31.891 4.577-44.971 3.186-25.919 7.081-51.391 18.186-75.354 5.651-12.193 12.488-22.104 20.504-29.719 8.08-7.681 17.308-13.47 27.667-17.343 32.422-12.128 82.348-4.221 106.385 20.664 15.357 15.905 24.603 35.865 29.915 57.138 2.777 11.127 4.868 22.898 6.259 35.295 1.391 12.405 2.086 25.285 2.086 38.599 0 16.878-.995 33.965-2.99 51.23-1.965 17.061-4.943 34.296-8.92 51.674a623.582 623.582 0 01-6.772 26.91z"/><path fill="#fff" d="M172.056 330.38c9.063-23.801 16.283-48.567 21.966-73.386 7.681-33.569 11.514-66.803 11.514-99.704 0-25.888-2.63-49.362-7.896-70.414-5.26-21.06-14.04-37.952-26.32-50.677-12.286-12.725-29.394-19.084-51.338-19.084-20.614 0-37.617 6.359-50.996 19.084C55.6 48.924 45.839 69.983 39.695 99.378c-3.506 18.422-6.685 44.311-9.538 77.657-2.852 33.338-4.278 68.223-4.278 104.637 0 44.31 1.976 79.187 5.92 104.636 3.952 25.443 10.534 46.064 19.745 61.864 10.088 17.108 24.462 29.722 43.107 37.841 18.646 8.112 43.762 12.175 75.347 12.175 16.677 0 33.347-1.099 50.016-3.291 16.677-2.198 32.581-5.489 47.713-9.872 15.139-4.39 28.414-9.657 39.817-15.793 21.059-10.971 38.175-25.776 51.33-44.422 13.163-18.652 19.745-39.163 19.745-61.537 0-24.128-7.02-42.884-21.06-56.263-14.04-13.386-34.222-20.072-60.542-20.072-17.991 0-35.976 2.519-53.967 7.562a206.605 206.605 0 00-51.004 22.048c-5.586 3.365-15.674 11.841-19.99 13.832z"/><path d="M73.125 250.61c-.035 4.742-3.921 8.558-8.663 8.524-4.743-.035-8.559-3.922-8.524-8.664l.117-12.527c.035-4.742 3.921-8.559 8.663-8.524 4.743.035 8.559 3.921 8.524 8.663l-.117 12.528zm1.469-42.829c-.239 4.743-4.29 8.394-9.033 8.155-4.742-.239-8.393-4.29-8.154-9.033 1.161-21.433 2.947-43.219 5.755-65.222 2.799-21.929 6.629-43.98 11.888-65.962 1.096-4.611 5.729-7.463 10.341-6.367 4.612 1.095 7.464 5.729 6.368 10.34-5.099 21.304-8.819 42.759-11.549 64.145-2.717 21.316-4.468 42.715-5.616 63.944z"/></g></svg>